<svg width="256" height="384" viewBox="0 0 256 384" fill="none" xmlns="http://www.w3.org/2000/svg">
<g clip-path="url(#clip0_1_55)">
<ellipse cx="23" cy="173.5" rx="37" ry="66.5" fill="#FF0B0B" fill-opacity="0.5"/>
<ellipse cx="27.5" cy="273" rx="32.5" ry="33" fill="#FF0B0B" fill-opacity="0.5"/>
<ellipse cx="60" cy="231.5" rx="20" ry="32.5" fill="#FF0B0B" fill-opacity="0.5"/>
</g>
<defs>
<clipPath id="clip0_1_55">
<rect width="256" height="384" fill="white"/>
</clipPath>
</defs>
</svg>

<svg width="256" height="384" viewBox="0 0 256 384" fill="none" xmlns="http://www.w3.org/2000/svg">
<g clip-path="url(#clip0_1_55)">
<ellipse cx="23" cy="173.5" rx="37" ry="66.5" fill="#FF0B0B" fill-opacity="0.5"/>
<path d="M28.8295 107.455C28.7784 107.023 28.571 106.688 28.2074 106.449C27.8438 106.21 27.3977 106.091 26.8693 106.091C26.483 106.091 26.1449 106.153 25.8551 106.278C25.5682 106.403 25.3438 106.575 25.1818 106.794C25.0227 107.013 24.9432 107.261 24.9432 107.54C24.9432 107.773 24.9986 107.973 25.1094 108.141C25.223 108.305 25.3679 108.443 25.544 108.554C25.7202 108.662 25.9048 108.751 26.098 108.822C26.2912 108.891 26.4688 108.946 26.6307 108.989L27.517 109.227C27.7443 109.287 27.9972 109.369 28.2756 109.474C28.5568 109.58 28.8253 109.723 29.081 109.905C29.3395 110.084 29.5526 110.314 29.7202 110.595C29.8878 110.876 29.9716 111.222 29.9716 111.631C29.9716 112.102 29.848 112.528 29.6009 112.909C29.3565 113.29 28.9986 113.592 28.527 113.817C28.0582 114.041 27.4886 114.153 26.8182 114.153C26.1932 114.153 25.652 114.053 25.1946 113.851C24.7401 113.649 24.3821 113.368 24.1207 113.007C23.8622 112.646 23.7159 112.227 23.6818 111.75H24.7727C24.8011 112.08 24.9119 112.352 25.1051 112.568C25.3011 112.781 25.5483 112.94 25.8466 113.045C26.1477 113.148 26.4716 113.199 26.8182 113.199C27.2216 113.199 27.5838 113.134 27.9048 113.003C28.2259 112.869 28.4801 112.685 28.6676 112.449C28.8551 112.21 28.9489 111.932 28.9489 111.614C28.9489 111.324 28.8679 111.088 28.706 110.906C28.544 110.724 28.331 110.577 28.0668 110.463C27.8026 110.349 27.517 110.25 27.2102 110.165L26.1364 109.858C25.4545 109.662 24.9148 109.382 24.517 109.018C24.1193 108.655 23.9205 108.179 23.9205 107.591C23.9205 107.102 24.0526 106.676 24.3168 106.312C24.5838 105.946 24.9418 105.662 25.3906 105.46C25.8423 105.256 26.3466 105.153 26.9034 105.153C27.4659 105.153 27.9659 105.254 28.4034 105.456C28.8409 105.655 29.1875 105.928 29.4432 106.274C29.7017 106.621 29.8381 107.014 29.8523 107.455H28.8295ZM34.2319 114.136C33.641 114.136 33.1225 113.996 32.6765 113.714C32.2333 113.433 31.8867 113.04 31.6367 112.534C31.3896 112.028 31.266 111.437 31.266 110.761C31.266 110.08 31.3896 109.484 31.6367 108.976C31.8867 108.467 32.2333 108.072 32.6765 107.791C33.1225 107.51 33.641 107.369 34.2319 107.369C34.8228 107.369 35.3398 107.51 35.783 107.791C36.229 108.072 36.5756 108.467 36.8228 108.976C37.0728 109.484 37.1978 110.08 37.1978 110.761C37.1978 111.437 37.0728 112.028 36.8228 112.534C36.5756 113.04 36.229 113.433 35.783 113.714C35.3398 113.996 34.8228 114.136 34.2319 114.136ZM34.2319 113.233C34.6808 113.233 35.0501 113.118 35.3398 112.888C35.6296 112.658 35.8441 112.355 35.9833 111.98C36.1225 111.605 36.1921 111.199 36.1921 110.761C36.1921 110.324 36.1225 109.916 35.9833 109.538C35.8441 109.161 35.6296 108.855 35.3398 108.622C35.0501 108.389 34.6808 108.273 34.2319 108.273C33.783 108.273 33.4137 108.389 33.1239 108.622C32.8342 108.855 32.6197 109.161 32.4805 109.538C32.3413 109.916 32.2717 110.324 32.2717 110.761C32.2717 111.199 32.3413 111.605 32.4805 111.98C32.6197 112.355 32.8342 112.658 33.1239 112.888C33.4137 113.118 33.783 113.233 34.2319 113.233ZM38.733 114V107.455H39.7045V108.477H39.7898C39.9261 108.128 40.1463 107.857 40.4503 107.663C40.7543 107.467 41.1193 107.369 41.5455 107.369C41.9773 107.369 42.3366 107.467 42.6236 107.663C42.9134 107.857 43.1392 108.128 43.3011 108.477H43.3693C43.5369 108.139 43.7884 107.871 44.1236 107.672C44.4588 107.47 44.8608 107.369 45.3295 107.369C45.9148 107.369 46.3935 107.553 46.7656 107.919C47.1378 108.283 47.3239 108.849 47.3239 109.619V114H46.3182V109.619C46.3182 109.136 46.1861 108.791 45.9219 108.584C45.6577 108.376 45.3466 108.273 44.9886 108.273C44.5284 108.273 44.1719 108.412 43.919 108.69C43.6662 108.966 43.5398 109.315 43.5398 109.739V114H42.517V109.517C42.517 109.145 42.3963 108.845 42.1548 108.618C41.9134 108.388 41.6023 108.273 41.2216 108.273C40.9602 108.273 40.7159 108.342 40.4886 108.482C40.2642 108.621 40.0824 108.814 39.9432 109.061C39.8068 109.305 39.7386 109.588 39.7386 109.909V114H38.733ZM51.907 114.136C51.2763 114.136 50.7322 113.997 50.2749 113.719C49.8203 113.438 49.4695 113.045 49.2223 112.543C48.978 112.037 48.8558 111.449 48.8558 110.778C48.8558 110.108 48.978 109.517 49.2223 109.006C49.4695 108.491 49.8132 108.091 50.2536 107.804C50.6967 107.514 51.2138 107.369 51.8047 107.369C52.1456 107.369 52.4822 107.426 52.8146 107.54C53.147 107.653 53.4496 107.838 53.7223 108.094C53.995 108.347 54.2124 108.682 54.3743 109.099C54.5362 109.517 54.6172 110.031 54.6172 110.642V111.068H49.5717V110.199H53.5945C53.5945 109.83 53.5206 109.5 53.3729 109.21C53.228 108.92 53.0206 108.692 52.7507 108.524C52.4837 108.357 52.1683 108.273 51.8047 108.273C51.4041 108.273 51.0575 108.372 50.7649 108.571C50.4751 108.767 50.2521 109.023 50.0959 109.338C49.9396 109.653 49.8615 109.991 49.8615 110.352V110.932C49.8615 111.426 49.9467 111.845 50.1172 112.189C50.2905 112.53 50.5305 112.79 50.8374 112.969C51.1442 113.145 51.5007 113.233 51.907 113.233C52.1712 113.233 52.4098 113.196 52.6229 113.122C52.8388 113.045 53.0249 112.932 53.1811 112.781C53.3374 112.628 53.4581 112.437 53.5433 112.21L54.5149 112.483C54.4126 112.812 54.2408 113.102 53.9993 113.352C53.7578 113.599 53.4595 113.793 53.1044 113.932C52.7493 114.068 52.3501 114.136 51.907 114.136ZM61.9936 114.136C61.4482 114.136 60.9666 113.999 60.549 113.723C60.1314 113.445 59.8047 113.053 59.5689 112.547C59.3331 112.038 59.2152 111.438 59.2152 110.744C59.2152 110.057 59.3331 109.46 59.5689 108.955C59.8047 108.449 60.1328 108.058 60.5533 107.783C60.9737 107.507 61.4595 107.369 62.0107 107.369C62.4368 107.369 62.7734 107.44 63.0206 107.582C63.2706 107.722 63.4609 107.881 63.5916 108.06C63.7251 108.236 63.8288 108.381 63.9027 108.494H63.9879V105.273H64.9936V114H64.022V112.994H63.9027C63.8288 113.114 63.7237 113.264 63.5874 113.446C63.451 113.625 63.2564 113.786 63.0036 113.928C62.7507 114.067 62.4141 114.136 61.9936 114.136ZM62.13 113.233C62.5334 113.233 62.8743 113.128 63.1527 112.918C63.4311 112.705 63.6428 112.411 63.7876 112.036C63.9325 111.658 64.005 111.222 64.005 110.727C64.005 110.239 63.9339 109.811 63.7919 109.445C63.6499 109.075 63.4396 108.788 63.1612 108.584C62.8828 108.376 62.5391 108.273 62.13 108.273C61.7038 108.273 61.3487 108.382 61.0646 108.601C60.7834 108.817 60.5717 109.111 60.4297 109.483C60.2905 109.852 60.2209 110.267 60.2209 110.727C60.2209 111.193 60.2919 111.616 60.4339 111.997C60.5788 112.375 60.7919 112.676 61.0732 112.901C61.3572 113.122 61.7095 113.233 62.13 113.233ZM69.7195 114.136C69.0888 114.136 68.5447 113.997 68.0874 113.719C67.6328 113.438 67.282 113.045 67.0348 112.543C66.7905 112.037 66.6683 111.449 66.6683 110.778C66.6683 110.108 66.7905 109.517 67.0348 109.006C67.282 108.491 67.6257 108.091 68.0661 107.804C68.5092 107.514 69.0263 107.369 69.6172 107.369C69.9581 107.369 70.2947 107.426 70.6271 107.54C70.9595 107.653 71.2621 107.838 71.5348 108.094C71.8075 108.347 72.0249 108.682 72.1868 109.099C72.3487 109.517 72.4297 110.031 72.4297 110.642V111.068H67.3842V110.199H71.407C71.407 109.83 71.3331 109.5 71.1854 109.21C71.0405 108.92 70.8331 108.692 70.5632 108.524C70.2962 108.357 69.9808 108.273 69.6172 108.273C69.2166 108.273 68.87 108.372 68.5774 108.571C68.2876 108.767 68.0646 109.023 67.9084 109.338C67.7521 109.653 67.674 109.991 67.674 110.352V110.932C67.674 111.426 67.7592 111.845 67.9297 112.189C68.103 112.53 68.343 112.79 68.6499 112.969C68.9567 113.145 69.3132 113.233 69.7195 113.233C69.9837 113.233 70.2223 113.196 70.4354 113.122C70.6513 113.045 70.8374 112.932 70.9936 112.781C71.1499 112.628 71.2706 112.437 71.3558 112.21L72.3274 112.483C72.2251 112.812 72.0533 113.102 71.8118 113.352C71.5703 113.599 71.272 113.793 70.9169 113.932C70.5618 114.068 70.1626 114.136 69.7195 114.136ZM78.5959 108.92L77.6925 109.176C77.6357 109.026 77.5518 108.879 77.4411 108.737C77.3331 108.592 77.1854 108.473 76.9979 108.379C76.8104 108.286 76.5703 108.239 76.2777 108.239C75.8771 108.239 75.5433 108.331 75.2763 108.516C75.0121 108.697 74.88 108.929 74.88 109.21C74.88 109.46 74.9709 109.658 75.1527 109.803C75.3345 109.947 75.6186 110.068 76.005 110.165L76.9766 110.403C77.5618 110.545 77.9979 110.763 78.2848 111.055C78.5717 111.345 78.7152 111.719 78.7152 112.176C78.7152 112.551 78.6072 112.886 78.3913 113.182C78.1783 113.477 77.88 113.71 77.4964 113.881C77.1129 114.051 76.6669 114.136 76.1584 114.136C75.4908 114.136 74.9382 113.991 74.5007 113.702C74.0632 113.412 73.7862 112.989 73.6697 112.432L74.6243 112.193C74.7152 112.545 74.8871 112.81 75.1399 112.986C75.3956 113.162 75.7294 113.25 76.1413 113.25C76.6101 113.25 76.9822 113.151 77.2578 112.952C77.5362 112.75 77.6754 112.509 77.6754 112.227C77.6754 112 77.5959 111.81 77.4368 111.656C77.2777 111.5 77.0334 111.384 76.7038 111.307L75.6129 111.051C75.0135 110.909 74.5732 110.689 74.2919 110.391C74.0135 110.089 73.8743 109.713 73.8743 109.261C73.8743 108.892 73.978 108.565 74.1854 108.281C74.3956 107.997 74.6811 107.774 75.0419 107.612C75.4055 107.45 75.8175 107.369 76.2777 107.369C76.9254 107.369 77.4339 107.511 77.8033 107.795C78.1754 108.08 78.4396 108.455 78.5959 108.92ZM82.8881 114.136C82.2745 114.136 81.7461 113.991 81.3029 113.702C80.8597 113.412 80.5188 113.013 80.2802 112.504C80.0415 111.996 79.9222 111.415 79.9222 110.761C79.9222 110.097 80.0444 109.51 80.2887 109.001C80.5359 108.49 80.8796 108.091 81.32 107.804C81.7631 107.514 82.2802 107.369 82.8711 107.369C83.3313 107.369 83.7461 107.455 84.1154 107.625C84.4847 107.795 84.7873 108.034 85.0231 108.341C85.2589 108.648 85.4052 109.006 85.462 109.415H84.4563C84.3796 109.116 84.2092 108.852 83.945 108.622C83.6836 108.389 83.3313 108.273 82.8881 108.273C82.4961 108.273 82.1523 108.375 81.8569 108.58C81.5643 108.781 81.3356 109.067 81.1708 109.436C81.0089 109.803 80.9279 110.233 80.9279 110.727C80.9279 111.233 81.0075 111.673 81.1665 112.048C81.3285 112.423 81.5558 112.714 81.8484 112.922C82.1438 113.129 82.4904 113.233 82.8881 113.233C83.1495 113.233 83.3867 113.188 83.5998 113.097C83.8129 113.006 83.9933 112.875 84.141 112.705C84.2887 112.534 84.3938 112.33 84.4563 112.091H85.462C85.4052 112.477 85.2646 112.825 85.0401 113.135C84.8185 113.442 84.5245 113.686 84.158 113.868C83.7944 114.047 83.3711 114.136 82.8881 114.136ZM86.9322 114V107.455H87.9038V108.443H87.9719C88.0913 108.119 88.3072 107.857 88.6197 107.655C88.9322 107.453 89.2844 107.352 89.6765 107.352C89.7504 107.352 89.8427 107.354 89.9535 107.357C90.0643 107.359 90.1481 107.364 90.2049 107.369V108.392C90.1708 108.384 90.0927 108.371 89.9705 108.354C89.8512 108.334 89.7248 108.324 89.5913 108.324C89.2731 108.324 88.989 108.391 88.739 108.524C88.4918 108.655 88.2958 108.837 88.1509 109.07C88.0089 109.3 87.9379 109.562 87.9379 109.858V114H86.9322ZM91.397 114V107.455H92.4027V114H91.397ZM91.9084 106.364C91.7124 106.364 91.5433 106.297 91.4013 106.163C91.2621 106.03 91.1925 105.869 91.1925 105.682C91.1925 105.494 91.2621 105.334 91.4013 105.2C91.5433 105.067 91.7124 105 91.9084 105C92.1044 105 92.272 105.067 92.4112 105.2C92.5533 105.334 92.6243 105.494 92.6243 105.682C92.6243 105.869 92.5533 106.03 92.4112 106.163C92.272 106.297 92.1044 106.364 91.9084 106.364ZM94.2447 116.455V107.455H95.2163V108.494H95.3356C95.4094 108.381 95.5117 108.236 95.6424 108.06C95.7759 107.881 95.9663 107.722 96.2134 107.582C96.4634 107.44 96.8015 107.369 97.2276 107.369C97.7788 107.369 98.2646 107.507 98.685 107.783C99.1055 108.058 99.4336 108.449 99.6694 108.955C99.9052 109.46 100.023 110.057 100.023 110.744C100.023 111.438 99.9052 112.038 99.6694 112.547C99.4336 113.053 99.1069 113.445 98.6893 113.723C98.2717 113.999 97.7901 114.136 97.2447 114.136C96.8242 114.136 96.4876 114.067 96.2347 113.928C95.9819 113.786 95.7873 113.625 95.6509 113.446C95.5146 113.264 95.4094 113.114 95.3356 112.994H95.2504V116.455H94.2447ZM95.2333 110.727C95.2333 111.222 95.3058 111.658 95.4506 112.036C95.5955 112.411 95.8072 112.705 96.0856 112.918C96.364 113.128 96.7049 113.233 97.1083 113.233C97.5288 113.233 97.8796 113.122 98.1609 112.901C98.445 112.676 98.658 112.375 98.8001 111.997C98.945 111.616 99.0174 111.193 99.0174 110.727C99.0174 110.267 98.9464 109.852 98.8043 109.483C98.6651 109.111 98.4535 108.817 98.1694 108.601C97.8881 108.382 97.5344 108.273 97.1083 108.273C96.6992 108.273 96.3555 108.376 96.0771 108.584C95.7987 108.788 95.5884 109.075 95.4464 109.445C95.3043 109.811 95.2333 110.239 95.2333 110.727ZM104.404 107.455V108.307H101.012V107.455H104.404ZM102 105.886H103.006V112.125C103.006 112.409 103.047 112.622 103.13 112.764C103.215 112.903 103.323 112.997 103.453 113.045C103.587 113.091 103.728 113.114 103.875 113.114C103.986 113.114 104.077 113.108 104.148 113.097C104.219 113.082 104.276 113.071 104.319 113.062L104.523 113.966C104.455 113.991 104.36 114.017 104.238 114.043C104.115 114.071 103.961 114.085 103.773 114.085C103.489 114.085 103.211 114.024 102.938 113.902C102.668 113.78 102.444 113.594 102.265 113.344C102.088 113.094 102 112.778 102 112.398V105.886ZM105.917 114V107.455H106.922V114H105.917ZM106.428 106.364C106.232 106.364 106.063 106.297 105.921 106.163C105.782 106.03 105.712 105.869 105.712 105.682C105.712 105.494 105.782 105.334 105.921 105.2C106.063 105.067 106.232 105 106.428 105C106.624 105 106.792 105.067 106.931 105.2C107.073 105.334 107.144 105.494 107.144 105.682C107.144 105.869 107.073 106.03 106.931 106.163C106.792 106.297 106.624 106.364 106.428 106.364ZM111.423 114.136C110.832 114.136 110.314 113.996 109.868 113.714C109.425 113.433 109.078 113.04 108.828 112.534C108.581 112.028 108.457 111.437 108.457 110.761C108.457 110.08 108.581 109.484 108.828 108.976C109.078 108.467 109.425 108.072 109.868 107.791C110.314 107.51 110.832 107.369 111.423 107.369C112.014 107.369 112.531 107.51 112.974 107.791C113.42 108.072 113.767 108.467 114.014 108.976C114.264 109.484 114.389 110.08 114.389 110.761C114.389 111.437 114.264 112.028 114.014 112.534C113.767 113.04 113.42 113.433 112.974 113.714C112.531 113.996 112.014 114.136 111.423 114.136ZM111.423 113.233C111.872 113.233 112.241 113.118 112.531 112.888C112.821 112.658 113.036 112.355 113.175 111.98C113.314 111.605 113.384 111.199 113.384 110.761C113.384 110.324 113.314 109.916 113.175 109.538C113.036 109.161 112.821 108.855 112.531 108.622C112.241 108.389 111.872 108.273 111.423 108.273C110.974 108.273 110.605 108.389 110.315 108.622C110.026 108.855 109.811 109.161 109.672 109.538C109.533 109.916 109.463 110.324 109.463 110.761C109.463 111.199 109.533 111.605 109.672 111.98C109.811 112.355 110.026 112.658 110.315 112.888C110.605 113.118 110.974 113.233 111.423 113.233ZM116.93 110.062V114H115.924V107.455H116.896V108.477H116.981C117.135 108.145 117.368 107.878 117.68 107.676C117.993 107.472 118.396 107.369 118.89 107.369C119.333 107.369 119.721 107.46 120.054 107.642C120.386 107.821 120.645 108.094 120.829 108.46C121.014 108.824 121.106 109.284 121.106 109.841V114H120.1V109.909C120.1 109.395 119.967 108.994 119.7 108.707C119.433 108.418 119.066 108.273 118.6 108.273C118.279 108.273 117.993 108.342 117.74 108.482C117.49 108.621 117.292 108.824 117.147 109.091C117.002 109.358 116.93 109.682 116.93 110.062Z" fill="white"/>
<ellipse cx="27.5" cy="273" rx="32.5" ry="33" fill="#FF0B0B" fill-opacity="0.5"/>
<ellipse cx="60" cy="231.5" rx="20" ry="32.5" fill="#FF0B0B" fill-opacity="0.5"/>
</g>
<defs>
<clipPath id="clip0_1_55">
<rect width="256" height="384" fill="white"/>
</clipPath>
</defs>
</svg>
